<?xml version="1.0" encoding="UTF-8"?><svg id="a" xmlns="http://www.w3.org/2000/svg" width="96" height="96" viewBox="0 0 96 96"><path d="M92,48c0,4.9706-4.0294,9-9,9-7,0-10.4157-3.3848-13-5-4.0284-2.5178-8.5317-8.3679-20.1198-4.6581.026.0741.0529.1478.07.2256,4.3874-.6116,15.6119-.1929,27.7483,15.9888,4.2426,5.6569,4.929,12.0416,1.4142,15.5563-3.5147,3.5148-9.2131,3.5148-12.7279,0-4.9497-4.9497-4.9716-9.7584-5.6569-12.7279-1.0681-4.6287-.1158-11.9493-10.9318-17.5201-.0344.0712-.0704.1413-.1126.2075,3.5342,2.6689,11.1774,10.9014,8.3165,30.9279-1,7-5.0294,12-10,12s-9-4.0294-9-9c0-7,3.3848-10.4157,5-13,2.5178-4.0284,8.3679-8.5317,4.6581-20.1198-.0741.026-.1478.0529-.2256.07.6116,4.3874.1929,15.6119-15.9888,27.7483-5.6569,4.2426-12.0416,4.929-15.5563,1.4142-3.5148-3.5147-3.5148-9.2132,0-12.7279,4.9497-4.9498,9.7584-4.9716,12.7279-5.6569,4.6287-1.0681,11.9493-.1158,17.5201-10.9318-.0712-.0344-.1413-.0704-.2075-.1126-2.6689,3.5342-10.9014,11.1774-30.9279,8.3165-7-1-12-5.0294-12-10s4.0294-9,9-9c7,0,10.4157,3.3848,13,5,4.0284,2.5178,8.5317,8.3679,20.1198,4.6581-.026-.0741-.0529-.1478-.07-.2256-4.3874.6116-15.6119.1929-27.7483-15.9888-4.2426-5.6569-4.929-12.0416-1.4142-15.5564s9.2131-3.5147,12.7279,0c4.9497,4.9498,4.9716,9.7585,5.6569,12.728,1.0681,4.6287.1158,11.9493,10.9318,17.5201.0344-.0712.0704-.1413.1126-.2075-3.5342-2.6689-11.1774-10.9014-8.3165-30.9279,1-7,5.0294-12,10-12s9,4.0294,9,9c0,7-3.3848,10.4157-5,13-2.5178,4.0284-8.3679,8.5317-4.6581,20.1198.0741-.026.1478-.0529.2256-.07-.6116-4.3874-.1929-15.6119,15.9888-27.7483,5.6569-4.2427,12.0416-4.929,15.5563-1.4142s3.5148,9.2132,0,12.728c-4.9497,4.9497-9.7584,4.9716-12.7279,5.6568-4.6287,1.0682-11.9493.1158-17.5201,10.9319.0712.0344.1413.0704.2075.1126,2.6689-3.5342,10.9014-11.1774,30.9279-8.3165,7,1,12,5.0294,12,10Z" fill="#e4bad4" stroke-width="0"/></svg>