<?xml version="1.0" encoding="UTF-8"?><svg id="a" xmlns="http://www.w3.org/2000/svg" width="96" height="96" viewBox="0 0 96 96"><path d="M92,48c0-7.2411-4.8133-12.0101-11.4127-13.4982,3.6143-5.7187,3.6456-12.4943-1.4747-17.6146s-11.8959-5.0888-17.6145-1.4746c-1.488-6.5994-6.257-11.4127-13.4982-11.4127s-12.0101,4.8133-13.4982,11.4127c-5.7186-3.6142-12.4943-3.6456-17.6145,1.4746s-5.0889,11.8959-1.4747,17.6146c-6.5994,1.488-11.4127,6.257-11.4127,13.4982s4.8133,12.0101,11.4127,13.4982c-3.6143,5.7186-3.6456,12.4943,1.4747,17.6145s11.8959,5.0889,17.6145,1.4747c1.488,6.5994,6.257,11.4127,13.4982,11.4127s12.0101-4.8133,13.4982-11.4127c5.7186,3.6143,12.4943,3.6456,17.6145-1.4747s5.0889-11.8959,1.4747-17.6145c6.5994-1.488,11.4127-6.257,11.4127-13.4982ZM48,60c-6.6274,0-12-5.3726-12-12s5.3726-12,12-12,12,5.3726,12,12-5.3726,12-12,12Z" fill="#ff8080" stroke-width="0"/></svg>