<?xml version="1.0" encoding="UTF-8"?><svg id="a" xmlns="http://www.w3.org/2000/svg" width="96" height="96" viewBox="0 0 96 96"><path d="M92,44.792c0,23.8252-19.7383,43.208-44,43.208S4,68.6172,4,44.792c0-2.209,1.791-4,4-4s4,1.791,4,4c0,19.4141,16.1494,35.208,36,35.208s36-15.7939,36-35.208c0-15.876-13.2134-28.792-29.4546-28.792s-29.4546,12.916-29.4546,28.792c0,12.3379,10.2769,22.376,22.9092,22.376s22.9092-10.0381,22.9092-22.376c0-8.8008-7.3408-15.96-16.3638-15.96s-16.3638,7.1592-16.3638,15.96c0,5.2627,4.4043,9.5449,9.8184,9.5449s9.8184-4.2822,9.8184-9.5449c0-1.7256-1.4683-3.1289-3.2729-3.1289s-3.2725,1.4033-3.2725,3.1289c0,2.209-1.791,4-4,4s-4-1.791-4-4c0-6.1367,5.0566-11.1289,11.2725-11.1289s11.2729,4.9922,11.2729,11.1289c0,9.6738-7.9932,17.5449-17.8184,17.5449s-17.8184-7.8711-17.8184-17.5449c0-13.2119,10.9297-23.96,24.3638-23.96s24.3638,10.748,24.3638,23.96c0,16.749-13.8657,30.376-30.9092,30.376s-30.9092-13.627-30.9092-30.376c0-20.2871,16.8022-36.792,37.4546-36.792s37.4546,16.5049,37.4546,36.792Z" fill="#d0bfff" stroke-width="0"/></svg>